<svg width="416" height="350" viewBox="0 0 416 350" fill="none" xmlns="http://www.w3.org/2000/svg">
<g clip-path="url(#clip0_334_15884)">
<rect width="416" height="350" fill="#2B303B"/>
<g opacity="0.1">
<path d="M23.9727 -88V437.5" stroke="white"/>
<path d="M69.9839 -88V437.5" stroke="white"/>
<path d="M115.996 -88V437.5" stroke="white"/>
<path d="M162.007 -88V437.5" stroke="white"/>
<path d="M208.019 -88V437.5" stroke="white"/>
<path d="M254.03 -88V437.5" stroke="white"/>
<path d="M300.042 -88V437.5" stroke="white"/>
<path d="M346.053 -88V437.5" stroke="white"/>
<path d="M392.064 -88V437.5" stroke="white"/>
<path d="M471 27L-54.5 27" stroke="white"/>
<path d="M471 64L-54.5 64" stroke="white"/>
<path d="M471 101L-54.5 101" stroke="white"/>
<path d="M471 138L-54.5 138" stroke="white"/>
<path d="M471 175L-54.5 175" stroke="white"/>
<path d="M471 212L-54.5 212" stroke="white"/>
<path d="M471 249L-54.5 249" stroke="white"/>
<path d="M471 286L-54.5 286" stroke="white"/>
<path d="M471 323L-54.5 323" stroke="white"/>
</g>
<rect x="115" y="137" width="186" height="76" fill="#2B303B"/>
<path d="M159.728 187.512C157.872 187.512 156.304 187.032 155.024 186.072C153.744 185.112 152.763 183.747 152.08 181.976C151.419 180.205 151.088 178.104 151.088 175.672C151.088 173.219 151.419 171.107 152.08 169.336C152.763 167.565 153.744 166.2 155.024 165.24C156.304 164.259 157.872 163.768 159.728 163.768C161.861 163.768 163.643 164.472 165.072 165.88C166.501 167.288 167.419 169.283 167.824 171.864L163.76 172.056C163.483 170.52 162.981 169.357 162.256 168.568C161.552 167.757 160.709 167.352 159.728 167.352C158.725 167.352 157.883 167.683 157.2 168.344C156.539 168.984 156.037 169.923 155.696 171.16C155.355 172.397 155.184 173.901 155.184 175.672C155.184 177.421 155.355 178.915 155.696 180.152C156.037 181.389 156.539 182.328 157.2 182.968C157.883 183.608 158.725 183.928 159.728 183.928C160.752 183.928 161.637 183.501 162.384 182.648C163.131 181.773 163.632 180.504 163.888 178.84L167.952 179C167.568 181.688 166.651 183.779 165.2 185.272C163.771 186.765 161.947 187.512 159.728 187.512ZM172.26 187V164.28H176.228V185.72L173.508 183.352H186.596V187H172.26ZM190.807 187V183.352H195.991V167.928H190.807V164.28H205.143V167.928H199.959V183.352H205.143V187H190.807ZM217.291 187.512C215.435 187.512 213.867 187.032 212.587 186.072C211.307 185.112 210.325 183.747 209.643 181.976C208.981 180.205 208.651 178.104 208.651 175.672C208.651 173.219 208.981 171.107 209.643 169.336C210.325 167.565 211.307 166.2 212.587 165.24C213.867 164.259 215.435 163.768 217.291 163.768C219.424 163.768 221.205 164.472 222.635 165.88C224.064 167.288 224.981 169.283 225.387 171.864L221.323 172.056C221.045 170.52 220.544 169.357 219.819 168.568C219.115 167.757 218.272 167.352 217.291 167.352C216.288 167.352 215.445 167.683 214.763 168.344C214.101 168.984 213.6 169.923 213.259 171.16C212.917 172.397 212.747 173.901 212.747 175.672C212.747 177.421 212.917 178.915 213.259 180.152C213.6 181.389 214.101 182.328 214.763 182.968C215.445 183.608 216.288 183.928 217.291 183.928C218.315 183.928 219.2 183.501 219.947 182.648C220.693 181.773 221.195 180.504 221.451 178.84L225.515 179C225.131 181.688 224.213 183.779 222.763 185.272C221.333 186.765 219.509 187.512 217.291 187.512ZM236.35 187.512C234.537 187.512 232.99 187.053 231.71 186.136C230.451 185.219 229.491 183.875 228.83 182.104C228.169 180.333 227.838 178.189 227.838 175.672C227.838 173.112 228.169 170.947 228.83 169.176C229.491 167.405 230.451 166.061 231.71 165.144C232.99 164.227 234.537 163.768 236.35 163.768C238.163 163.768 239.699 164.227 240.958 165.144C242.238 166.061 243.209 167.405 243.87 169.176C244.531 170.947 244.862 173.112 244.862 175.672C244.862 178.189 244.531 180.333 243.87 182.104C243.209 183.875 242.238 185.219 240.958 186.136C239.699 187.053 238.163 187.512 236.35 187.512ZM236.35 183.928C237.31 183.928 238.121 183.629 238.782 183.032C239.443 182.435 239.934 181.528 240.254 180.312C240.595 179.075 240.766 177.528 240.766 175.672C240.766 173.816 240.595 172.269 240.254 171.032C239.934 169.795 239.443 168.877 238.782 168.28C238.121 167.661 237.31 167.352 236.35 167.352C235.39 167.352 234.579 167.661 233.918 168.28C233.257 168.877 232.755 169.795 232.414 171.032C232.094 172.269 231.934 173.816 231.934 175.672C231.934 177.528 232.094 179.075 232.414 180.312C232.755 181.528 233.257 182.435 233.918 183.032C234.579 183.629 235.39 183.928 236.35 183.928ZM248.049 187V164.28H252.306L259.186 180.6V164.28H263.026V187H258.77L251.89 170.68V187H248.049Z" fill="white"/>
</g>
<defs>
<clipPath id="clip0_334_15884">
<rect width="416" height="350" fill="white"/>
</clipPath>
</defs>
</svg>
